<?xml version="1.0" standalone="no"?>
<!DOCTYPE svg PUBLIC "-//W3C//DTD SVG 20010904//EN"
 "http://www.w3.org/TR/2001/REC-SVG-20010904/DTD/svg10.dtd">
<svg version="1.0" xmlns="http://www.w3.org/2000/svg"
 width="800.000000pt" height="800.000000pt" viewBox="0 0 800.000000 800.000000"
 preserveAspectRatio="xMidYMid meet">

<g transform="translate(0.000000,800.000000) scale(0.100000,-0.100000)"
fill="#000000" stroke="none">
<path d="M5636 6854 c17 -70 71 -145 148 -207 l51 -40 -60 7 c-85 11 -138 37
-174 87 l-31 42 0 -40 c0 -63 29 -140 72 -188 33 -38 38 -49 38 -93 0 -28 6
-83 14 -124 7 -40 12 -87 11 -105 -6 -66 -64 -126 -149 -153 -33 -11 -48 -9
-110 9 -39 11 -112 27 -163 35 -84 12 -97 17 -152 59 -100 75 -154 92 -301 92
-118 0 -131 -2 -230 -36 -102 -36 -107 -37 -180 -27 -205 27 -546 -34 -699
-125 -37 -22 -72 -57 -114 -112 -34 -44 -87 -113 -119 -154 -96 -121 -175
-300 -232 -527 -51 -200 -106 -583 -92 -637 8 -32 75 -69 212 -116 119 -41
152 -41 167 -1 8 22 18 30 36 30 16 0 38 15 63 43 39 41 39 43 33 97 -19 162
-53 211 -176 250 -38 13 -69 28 -69 35 0 7 16 44 35 82 39 78 104 150 211 235
91 73 142 133 200 236 36 64 51 81 63 76 111 -47 168 -57 311 -58 80 -1 178 3
217 8 l73 8 -25 -54 c-43 -95 -64 -199 -75 -381 -12 -187 -19 -226 -57 -302
-45 -89 -84 -137 -243 -300 -136 -140 -160 -171 -197 -245 -66 -132 -95 -244
-98 -376 l-2 -112 -69 -59 c-209 -180 -439 -491 -587 -793 l-61 -125 -175 0
c-196 0 -246 -8 -356 -60 -85 -40 -168 -114 -301 -268 -54 -62 -168 -182 -254
-267 l-156 -156 -135 10 c-212 15 -231 6 -248 -117 -13 -92 -5 -136 25 -143
49 -12 40 -66 -25 -148 -28 -35 -31 -46 -31 -108 0 -97 26 -197 80 -302 46
-91 91 -139 110 -120 6 6 14 56 19 111 10 111 32 175 99 290 138 235 298 377
590 523 189 94 641 239 830 266 113 15 144 28 212 84 25 20 133 83 240 140
283 149 424 239 590 374 86 70 206 187 272 265 l46 54 130 -37 c72 -21 183
-48 247 -61 65 -13 119 -26 121 -28 2 -2 -15 -10 -38 -17 -92 -27 -155 -68
-230 -150 -88 -96 -163 -159 -321 -269 l-119 -82 -100 11 c-142 14 -197 12
-244 -9 -103 -47 -115 -198 -22 -276 29 -25 30 -27 27 -104 -4 -71 -7 -81 -36
-115 -38 -42 -43 -87 -17 -139 38 -73 138 -234 161 -259 l26 -27 -24 -10 c-13
-6 -78 -24 -144 -40 -635 -157 -1257 -204 -1910 -146 -80 7 149 -49 322 -79
748 -130 1464 -91 2103 116 841 272 1531 797 2011 1530 72 110 209 367 253
473 23 53 14 43 -92 -115 -508 -756 -1298 -1332 -2289 -1670 -78 -27 -144 -46
-146 -42 -3 4 -1 75 3 157 7 160 19 210 81 341 40 84 78 122 183 179 198 108
431 172 983 270 71 13 109 26 168 60 70 40 80 43 130 38 l54 -6 59 57 c33 31
78 83 100 114 l40 57 -19 75 c-41 161 -142 327 -323 529 -166 186 -322 317
-511 428 -60 36 -112 67 -113 68 -6 6 160 218 208 265 25 26 92 75 150 110 58
36 140 93 183 128 43 35 80 62 81 60 2 -1 9 -25 16 -51 21 -80 196 -373 327
-550 73 -98 64 -96 170 -47 141 65 278 183 371 322 29 42 94 154 146 248 52
93 115 197 140 231 47 62 99 201 127 335 l13 62 -38 43 c-20 24 -42 63 -48 86
-7 29 -27 61 -59 95 -44 47 -50 50 -84 45 -20 -3 -64 -25 -98 -48 -47 -32 -70
-42 -95 -40 -55 3 -71 -7 -83 -52 -6 -23 -21 -59 -35 -79 -13 -21 -24 -40 -24
-43 0 -3 16 -28 35 -56 29 -43 35 -60 35 -106 0 -35 7 -68 21 -95 26 -51 20
-107 -18 -166 -29 -44 -38 -49 -147 -81 -98 -30 -96 -30 -96 37 0 66 -21 144
-57 216 l-24 48 20 48 c94 218 59 393 -116 576 -35 36 -63 68 -63 70 0 2 17
13 38 24 20 12 28 18 17 15 -65 -20 -185 -115 -237 -187 -19 -28 -19 -29 -2
-20 11 6 28 20 38 31 29 32 36 26 36 -29 0 -46 -3 -52 -32 -70 -54 -33 -152
-25 -164 14 -3 11 -24 60 -45 108 -42 94 -105 292 -111 347 l-3 33 95 32 c52
18 128 49 167 69 40 20 75 37 77 37 3 0 -11 -33 -29 -73 -69 -149 -106 -290
-119 -447 l-6 -75 23 50 c30 64 130 155 214 197 78 38 106 36 234 -22 160 -73
203 -65 216 39 4 36 12 55 24 62 11 5 19 19 19 29 0 11 9 28 20 37 13 11 20
30 20 51 l0 33 45 -7 45 -6 0 33 c0 19 -9 64 -19 101 l-20 68 30 30 c29 28 30
33 24 87 -23 192 -52 289 -112 367 -95 123 -252 176 -533 176 -153 0 -244 22
-318 76 -23 17 -23 17 -16 -12z m151 -93 c21 -6 112 -17 202 -26 90 -8 192
-22 225 -31 176 -46 276 -141 332 -318 13 -43 22 -81 20 -84 -3 -3 -8 4 -12
14 -23 69 -69 151 -109 193 -97 104 -206 151 -423 182 -148 21 -255 49 -287
74 -16 13 -16 15 -3 11 9 -3 34 -9 55 -15z m790 -547 c9 -24 -5 -29 -50 -15
-73 22 -94 23 -134 10 l-38 -13 34 -6 c34 -5 56 -40 25 -40 -18 0 -18 -16 0
-23 7 -3 18 -23 23 -44 l10 -38 12 30 c7 17 11 42 8 58 -8 58 45 13 71 -60 40
-113 42 -106 -22 -98 -62 8 -71 -3 -40 -50 19 -30 11 -45 -24 -45 -38 0 -60
-16 -33 -23 29 -7 26 -31 -4 -45 -22 -10 -24 -15 -14 -30 14 -23 4 -71 -16
-79 -8 -3 -27 -2 -41 1 -30 8 -164 140 -164 161 0 11 12 15 43 15 59 0 72 11
70 60 -3 57 -19 104 -60 172 -41 69 -40 95 7 125 59 37 70 51 70 88 l0 35 130
-65 c72 -36 133 -72 137 -81z m-539 60 c12 -8 22 -20 22 -26 0 -6 -9 -3 -19 6
-23 21 -56 14 -71 -15 -8 -15 -7 -19 5 -19 11 0 15 -11 15 -43 0 -24 7 -52 15
-63 15 -18 15 -18 9 9 -4 17 -2 27 5 27 6 0 11 -4 11 -9 0 -5 7 -17 16 -26 13
-12 14 -19 4 -30 -19 -22 -43 -18 -72 13 -32 34 -42 64 -34 107 7 37 41 85 60
85 6 0 22 -7 34 -16z m-1137 -134 c137 -26 255 -118 316 -246 31 -65 36 -87
35 -140 -1 -83 -24 -159 -63 -214 l-32 -44 -16 24 c-125 190 -308 325 -516
382 -151 40 -459 25 -662 -33 -84 -24 -119 -24 -132 -1 -6 9 -11 13 -11 7 -4
-47 -97 -375 -111 -389 -14 -15 -11 26 11 154 11 63 20 131 20 150 0 35 0 35
-33 -25 -18 -33 -65 -103 -105 -155 -75 -97 -166 -268 -201 -376 -37 -114 -53
-282 -31 -324 7 -13 41 -29 97 -46 110 -33 127 -51 143 -142 10 -59 9 -75 -3
-98 l-15 -28 -31 62 c-33 66 -37 77 -21 67 6 -3 10 -1 10 4 0 12 -55 13 -85 2
-18 -7 -17 -9 10 -22 21 -10 31 -23 33 -43 5 -38 -8 -48 -44 -37 -73 23 -86
19 -26 -9 61 -29 62 -30 62 -70 0 -22 -3 -40 -6 -40 -14 0 -104 43 -104 50 0
5 -31 20 -70 35 l-70 27 0 86 c0 48 9 148 20 222 49 344 115 539 257 755 33
50 77 122 98 160 48 88 78 121 137 151 129 66 469 114 593 84 l30 -7 -29 -12
c-16 -6 -75 -22 -130 -36 -116 -27 -265 -79 -292 -101 -18 -15 -18 -15 6 -10
38 9 163 33 277 55 76 14 133 33 220 74 217 100 326 123 464 97z m-1007 -365
c86 -66 288 -125 430 -126 108 0 90 -15 -32 -25 -168 -14 -354 50 -422 146
-26 36 -19 38 24 5z m1811 -432 c-10 -57 -93 -255 -132 -320 -95 -154 -107
-188 -82 -235 26 -48 128 -61 242 -29 37 10 67 17 67 14 0 -12 -156 -102 -204
-117 -107 -34 -159 -7 -192 98 l-17 54 -46 -21 c-71 -32 -153 -29 -220 8 -86
47 -249 220 -228 241 3 3 25 -15 49 -39 158 -157 371 -204 483 -105 67 58 189
264 254 431 27 66 36 73 26 20z m1093 21 c22 -15 62 -84 77 -134 4 -14 19 -42
33 -62 l24 -38 -16 -67 c-24 -93 -72 -206 -100 -232 -95 -90 -236 17 -170 129
15 24 22 27 68 27 28 -1 62 6 76 14 23 13 19 14 -65 19 -116 6 -137 19 -98 62
12 14 32 18 87 19 39 0 89 6 111 14 39 13 37 13 -60 14 -118 1 -145 7 -145 31
0 24 21 31 110 36 93 6 120 12 120 24 0 6 -41 10 -98 10 -72 0 -103 4 -118 15
-18 14 -18 16 -2 29 10 7 50 16 89 20 39 3 76 9 80 12 22 13 -7 24 -64 24
l-62 1 40 24 c47 29 53 30 83 9z m-222 -97 c10 -41 1 -102 -16 -102 -11 0 -16
13 -18 49 -2 27 -1 55 2 62 8 22 25 16 32 -9z m-476 -349 c57 -39 75 -88 75
-203 -1 -87 -4 -108 -27 -157 -15 -32 -28 -58 -30 -58 -2 0 -1 47 0 104 4 113
-10 191 -53 284 -27 59 -19 66 35 30z m582 -151 c18 0 51 3 72 7 l39 7 -28
-32 c-59 -70 -207 -194 -346 -289 -205 -140 -279 -224 -279 -312 0 -56 8 -60
79 -37 35 10 66 18 68 16 3 -4 -151 -77 -162 -77 -14 0 -158 209 -189 273 -32
69 -76 197 -76 221 0 6 20 -25 43 -69 23 -44 77 -133 119 -199 l77 -118 -5 63
c-8 78 6 131 46 186 61 83 224 183 415 254 79 30 86 34 57 37 -34 3 -33 -2
-17 77 5 24 6 25 30 9 13 -9 39 -16 57 -17z m-2618 -619 c-49 -229 35 -433
243 -586 149 -109 330 -196 651 -312 95 -35 171 -64 170 -66 -6 -5 -321 63
-442 95 -553 148 -786 422 -674 791 19 61 54 140 62 140 2 0 -3 -28 -10 -62z
m676 -100 c196 -84 404 -190 525 -268 199 -129 395 -303 504 -447 59 -77 157
-265 167 -319 12 -64 -11 -59 -45 11 -69 139 -241 338 -450 518 -204 175 -397
306 -680 459 -241 131 -246 142 -21 46z m-1007 -645 c-91 -114 -302 -405 -331
-458 -9 -16 -42 -61 -72 -100 -86 -110 -172 -239 -160 -243 5 -2 40 1 77 7
114 17 249 24 267 14 14 -8 3 -13 -51 -28 -82 -22 -214 -72 -303 -114 -76 -36
-115 -40 -130 -11 -14 25 -3 46 87 170 38 52 126 183 197 290 137 208 189 278
274 375 56 63 223 217 229 211 2 -2 -36 -53 -84 -113z m1668 -447 c53 -13 116
-33 139 -43 l42 -18 -184 -1 c-169 0 -190 -2 -271 -27 -96 -30 -201 -80 -344
-164 -112 -66 -127 -83 -36 -42 131 59 239 81 428 85 170 4 179 0 65 -26 -295
-67 -597 -190 -806 -328 -86 -56 -93 -59 -113 -46 -16 11 -21 26 -21 58 0 61
32 103 120 155 177 105 280 181 380 276 109 106 146 127 245 145 83 15 249 4
356 -24z m-2291 -286 c-19 -17 -77 -46 -130 -66 -218 -84 -345 -148 -495 -252
-86 -59 -217 -164 -212 -169 2 -1 41 13 88 33 88 37 302 97 329 92 8 -2 -27
-18 -79 -37 -191 -66 -373 -175 -591 -354 -85 -69 -115 -99 -114 -115 1 -23
-10 -29 -21 -11 -4 6 -13 8 -21 5 -16 -6 -54 47 -54 74 0 9 12 33 27 55 26 36
28 38 31 17 3 -20 8 -17 50 30 63 70 502 503 572 563 143 122 271 161 545 163
l110 1 -35 -29z m1120 -189 c-19 -23 -34 -55 -37 -77 -4 -34 1 -48 38 -102 50
-74 51 -98 11 -178 -57 -115 -67 -159 -65 -286 1 -65 -1 -118 -3 -118 -3 0
-23 38 -44 83 -55 117 -67 197 -50 325 12 95 9 262 -6 349 -7 37 0 40 114 42
l73 1 -31 -39z m-2422 -467 l23 -5 -26 -31 c-86 -102 -84 -213 5 -233 17 -4
30 -8 30 -10 0 -2 -20 -32 -44 -67 -91 -131 -141 -262 -152 -401 l-7 -81 -14
39 c-23 64 -43 182 -43 248 0 97 66 493 90 537 8 15 78 17 138 4z"/>
<path d="M3375 5791 c-17 -10 -82 -48 -145 -86 -63 -37 -216 -134 -340 -215
-347 -226 -441 -278 -613 -335 -184 -61 -377 -70 -547 -27 l-74 19 24 -20 c51
-41 187 -98 286 -118 83 -18 123 -20 244 -16 262 9 465 81 867 307 133 74 133
74 149 124 9 28 23 64 31 79 8 16 12 31 9 34 -6 6 -90 -38 -346 -182 -198
-111 -361 -191 -405 -199 l-30 -6 30 12 c84 34 289 145 440 239 94 58 208 128
255 156 82 48 87 53 144 147 33 53 57 98 55 101 -3 2 -18 -4 -34 -14z"/>
<path d="M2995 5187 c-291 -146 -487 -221 -653 -251 l-77 -14 101 -1 c178 -2
368 41 624 141 85 33 158 65 161 70 10 16 32 125 28 136 -2 5 -85 -31 -184
-81z"/>
<path d="M4355 5252 c-197 -20 -481 -105 -740 -222 l-69 -31 54 -30 c30 -16
65 -41 77 -56 l21 -26 112 42 c130 49 308 101 460 135 l105 23 7 84 c4 46 6
84 5 84 -1 0 -15 -1 -32 -3z"/>
<path d="M4095 4919 c-38 -11 -139 -43 -223 -71 l-154 -51 6 -30 c3 -16 6 -53
6 -82 l0 -52 138 49 c75 28 188 63 251 79 62 15 116 30 119 33 9 9 -49 146
-61 145 -7 0 -43 -9 -82 -20z"/>
<path d="M2968 4746 c-759 -544 -1318 -1265 -1667 -2150 -76 -194 -151 -407
-151 -430 0 -6 23 32 51 84 147 273 352 582 557 839 116 145 391 440 541 578
307 284 627 521 920 683 73 40 131 74 129 75 -2 2 -52 24 -111 51 l-109 47
-46 -23 c-60 -28 -270 -168 -387 -255 -147 -111 -305 -248 -467 -403 -83 -81
-146 -138 -141 -127 17 32 408 412 518 504 112 93 331 259 416 315 l57 37 6
102 c4 56 9 114 12 130 3 15 2 27 -3 27 -4 0 -60 -38 -125 -84z"/>
</g>
</svg>
